<?xml version="1.0" standalone="no"?>
<!DOCTYPE svg PUBLIC "-//W3C//DTD SVG 20010904//EN"
 "http://www.w3.org/TR/2001/REC-SVG-20010904/DTD/svg10.dtd">
<svg version="1.0" xmlns="http://www.w3.org/2000/svg"
 width="250.000000pt" height="250.000000pt" viewBox="0 0 250.000000 250.000000"
 preserveAspectRatio="xMidYMid meet">

<g transform="translate(0.000000,250.000000) scale(0.100000,-0.100000)"
fill="#000000" stroke="none">
<path d="M1118 2411 c-32 -10 -91 -39 -131 -64 -138 -86 -216 -195 -259 -360
-30 -116 -30 -339 1 -484 63 -301 220 -589 492 -906 147 -172 169 -220 133
-286 -31 -57 -74 -73 -181 -69 -106 4 -107 3 -3 -66 118 -79 171 -99 270 -100
l85 -1 20 40 c31 61 26 160 -11 255 -38 95 -84 162 -262 383 -254 316 -348
486 -402 732 -30 132 -32 358 -6 454 42 155 118 236 228 243 42 3 43 2 40 -27
-14 -171 -13 -190 11 -275 86 -301 77 -279 120 -291 70 -19 88 -11 124 56 82
152 150 371 137 441 -3 18 -35 82 -70 141 -35 59 -64 116 -64 126 0 10 -13 32
-29 48 -28 27 -34 29 -108 28 -47 0 -101 -7 -135 -18z m90 -443 c14 -14 16
-58 2 -58 -12 0 -30 33 -30 54 0 19 11 21 28 4z m252 -31 c0 -14 -20 -37 -32
-37 -12 0 -10 24 4 38 16 16 28 15 28 -1z"/>
<path d="M1025 2138 c-57 -31 -101 -92 -131 -178 -28 -83 -26 -314 5 -430 32
-122 83 -248 153 -380 73 -138 151 -254 309 -456 133 -169 183 -247 224 -349
38 -91 40 -180 6 -243 -12 -24 -19 -47 -16 -50 4 -4 34 -6 66 -6 129 3 229 92
245 221 9 78 -10 212 -44 291 -49 116 -108 190 -352 437 -130 132 -253 263
-274 292 -112 156 -161 364 -121 516 19 72 19 107 0 177 -8 30 -15 81 -15 113
0 61 -10 70 -55 45z"/>
<path d="M140 2037 c-75 -38 -64 -169 23 -274 113 -137 421 -342 516 -343 20
0 21 2 11 15 -7 8 -15 38 -19 67 l-6 53 -151 75 c-216 108 -311 185 -348 282
-25 66 -19 99 24 120 l35 18 -30 0 c-16 0 -41 -6 -55 -13z"/>
<path d="M2073 1816 c-174 -40 -262 -111 -472 -380 -67 -86 -147 -183 -178
-216 l-56 -61 105 -106 c73 -74 110 -104 121 -100 9 3 51 52 94 108 162 213
200 257 327 384 95 94 149 140 196 165 60 32 72 35 153 35 l89 0 -5 37 c-12
87 -87 134 -229 143 -53 3 -105 0 -145 -9z"/>
<path d="M2340 1577 c0 -104 -55 -152 -231 -202 -132 -38 -177 -63 -217 -118
l-34 -47 109 0 c226 0 383 72 448 204 31 64 44 156 24 173 -8 6 -33 14 -56 18
l-43 7 0 -35z"/>
<path d="M1195 1403 c3 -16 20 -51 36 -80 30 -53 31 -53 120 -68 33 -6 38 -3
97 60 35 36 60 70 57 76 -4 5 -30 9 -58 9 -29 0 -97 7 -151 15 -55 8 -101 15
-104 15 -2 0 -1 -12 3 -27z"/>
<path d="M239 1095 c-60 -19 -134 -85 -165 -148 -35 -69 -43 -171 -19 -266 9
-39 21 -73 25 -76 4 -2 18 12 31 33 50 76 152 106 271 78 104 -24 213 -85 385
-215 258 -194 321 -226 428 -225 65 0 124 26 126 54 8 77 -9 115 -105 235 -40
50 -93 117 -118 151 -117 154 -308 285 -523 359 -99 34 -262 44 -336 20z"/>
<path d="M195 672 c-45 -28 -57 -48 -57 -91 1 -89 101 -216 218 -278 91 -49
178 -66 309 -61 98 4 118 8 175 35 78 37 108 59 97 70 -5 4 -70 10 -145 13
-120 5 -144 9 -195 32 -64 30 -154 110 -183 163 -24 46 -13 55 71 55 35 0 55
4 50 9 -19 17 -171 59 -240 65 -59 6 -75 4 -100 -12z"/>
</g>
</svg>
