<?xml version="1.0" standalone="no"?>
<!DOCTYPE svg PUBLIC "-//W3C//DTD SVG 20010904//EN"
 "http://www.w3.org/TR/2001/REC-SVG-20010904/DTD/svg10.dtd">
<svg version="1.0" xmlns="http://www.w3.org/2000/svg"
 width="250.000000pt" height="250.000000pt" viewBox="0 0 250.000000 250.000000"
 preserveAspectRatio="xMidYMid meet">

<g transform="translate(0.000000,250.000000) scale(0.100000,-0.100000)"
fill="#000000" stroke="none">
<path d="M1110 2230 c-100 -24 -181 -49 -195 -61 -21 -20 -121 -9 -220 26 -55
19 -106 35 -113 35 -7 0 -20 -17 -28 -37 -22 -51 -11 -108 37 -201 21 -41 39
-79 39 -84 0 -4 -21 -38 -46 -75 -176 -255 -191 -494 -45 -708 58 -86 137
-151 306 -252 72 -43 148 -90 170 -106 54 -37 170 -152 208 -204 34 -48 42
-51 57 -23 18 34 109 133 168 183 31 26 107 78 167 114 305 183 378 256 440
439 24 70 26 90 22 179 -5 124 -41 223 -128 355 -32 50 -59 94 -59 98 0 4 18
43 40 86 48 97 58 149 36 200 -19 45 -24 45 -158 -3 -97 -34 -174 -40 -216
-16 -48 26 -225 66 -312 71 -61 2 -109 -2 -170 -16z m273 -19 c109 -18 147
-37 147 -71 0 -14 -15 -20 -75 -29 -103 -15 -108 -15 -135 14 -23 24 -23 25
-5 45 25 28 -2 27 -32 -2 l-23 -21 -23 21 c-24 23 -47 29 -47 13 0 -5 7 -14
15 -21 14 -12 13 -16 -6 -37 -26 -26 -31 -27 -134 -12 -60 9 -75 15 -75 29 0
33 38 53 138 71 125 22 127 22 255 0z m-743 -71 c15 -11 60 -31 99 -46 39 -15
70 -32 68 -38 -2 -6 -24 -24 -50 -41 -26 -17 -47 -38 -47 -47 0 -26 -24 -22
-61 9 -38 32 -59 79 -59 131 0 57 8 62 50 32z m1285 -1 c11 -35 -5 -107 -30
-136 -12 -16 -37 -36 -54 -46 -31 -18 -31 -18 -31 5 0 16 -14 32 -47 53 -26
17 -48 35 -50 41 -2 7 29 23 69 38 40 15 84 36 98 46 32 25 37 25 45 -1z
m-586 -63 l53 -54 24 -128 c33 -178 64 -395 59 -405 -3 -4 -50 18 -105 49
l-100 56 0 139 c0 124 2 142 20 164 11 14 20 36 20 49 0 24 14 32 25 14 12
-19 25 -10 25 18 0 21 -9 33 -44 55 -54 34 -62 34 -114 0 -33 -21 -42 -34 -42
-55 0 -28 13 -37 25 -18 11 18 25 10 25 -14 0 -13 9 -35 20 -49 18 -22 20 -40
20 -164 l0 -139 -100 -56 c-55 -31 -102 -52 -106 -47 -6 11 6 97 47 331 16 92
29 173 29 179 0 6 25 37 57 70 73 77 91 77 162 5z m-245 4 c14 -5 26 -13 26
-18 0 -12 -67 -42 -95 -42 -26 0 -61 42 -50 60 8 13 85 13 119 0z m451 0 c10
-17 -26 -60 -51 -60 -26 0 -94 30 -94 41 0 25 131 42 145 19z m-201 -544 c45
-25 89 -51 100 -59 18 -13 17 -15 -10 -33 -41 -29 -148 -74 -173 -74 -30 0
-167 59 -186 80 -16 17 -13 21 52 58 75 43 126 71 132 72 2 0 40 -20 85 -44z"/>
<path d="M312 1217 c-134 -142 -161 -329 -63 -438 20 -22 53 -50 73 -62 166
-99 258 -148 413 -218 99 -44 203 -89 230 -100 67 -25 222 -105 262 -135 l31
-24 53 36 c52 34 211 114 257 128 96 30 465 212 607 299 113 69 149 127 149
242 1 70 -3 89 -31 148 -28 59 -123 177 -143 177 -4 0 -11 -12 -15 -27 -12
-50 -96 -162 -188 -254 -108 -105 -238 -201 -356 -260 -153 -77 -257 -198
-302 -352 -11 -39 -23 -79 -26 -87 -3 -8 -13 18 -24 58 -10 40 -33 101 -51
135 -44 85 -156 196 -233 232 -139 65 -345 219 -440 331 -66 77 -135 182 -135
205 0 30 -13 23 -68 -34z"/>
</g>
</svg>
