<?xml version="1.0" standalone="no"?>
<!DOCTYPE svg PUBLIC "-//W3C//DTD SVG 20010904//EN"
 "http://www.w3.org/TR/2001/REC-SVG-20010904/DTD/svg10.dtd">
<svg version="1.0" xmlns="http://www.w3.org/2000/svg"
 width="1080.000000pt" height="1080.000000pt" viewBox="0 0 1080.000000 1080.000000"
 preserveAspectRatio="xMidYMid meet">
<metadata>
Created by potrace 1.16, written by Peter Selinger 2001-2019
</metadata>
<g transform="translate(0.000000,1080.000000) scale(0.100000,-0.100000)"
fill="#000000" stroke="none">
<path d="M0 9665 c0 -963 2 -1135 14 -1135 18 0 26 -22 26 -73 0 -23 7 -97 17
-165 15 -108 16 -124 3 -133 -11 -8 -12 -12 -3 -16 10 -3 9 -8 -2 -20 -11 -11
-15 -40 -15 -124 0 -60 4 -109 9 -109 5 0 12 -36 16 -80 5 -54 13 -86 24 -97
12 -13 17 -44 22 -137 3 -67 10 -134 17 -149 7 -16 12 -66 12 -112 0 -85 6
-119 20 -110 4 3 11 -17 15 -43 3 -26 13 -57 21 -69 7 -12 16 -41 20 -65 8
-61 32 -134 66 -201 25 -50 31 -57 44 -46 13 10 17 10 25 -2 6 -10 9 -8 9 11
0 14 -14 50 -31 80 -17 30 -39 93 -50 140 -11 47 -31 114 -45 149 -18 46 -24
75 -19 98 3 18 6 135 6 260 0 182 3 230 14 243 11 12 14 55 15 188 1 136 5
172 15 172 16 0 35 -78 36 -148 1 -38 2 -42 9 -22 6 18 8 6 9 -45 1 -53 6 -76
21 -95 17 -22 20 -42 20 -170 1 -80 5 -154 9 -165 15 -38 22 33 20 192 -1 84
1 156 4 159 3 4 6 -144 7 -327 0 -333 5 -413 21 -403 5 3 9 -12 9 -32 0 -54
17 -31 29 36 7 45 9 24 9 -105 0 -88 -2 -152 -5 -142 -2 9 -9 17 -14 17 -6 0
-8 9 -4 20 3 11 2 28 -4 37 -8 13 -10 -6 -11 -74 0 -83 -10 -123 -23 -91 -3 7
-6 -172 -6 -397 -1 -308 2 -414 11 -423 7 -7 14 -52 16 -108 4 -89 5 -94 20
-73 13 19 14 38 4 148 -15 157 -15 227 -1 416 8 100 9 189 3 268 -5 65 -6 121
-2 125 3 4 8 23 11 42 2 19 5 -1 6 -45 1 -44 8 -98 16 -120 8 -22 15 -61 15
-87 0 -25 5 -48 11 -50 20 -7 28 -98 28 -338 1 -142 5 -240 11 -246 5 -5 14
-59 20 -119 15 -160 40 -337 50 -357 5 -9 19 -61 30 -115 12 -54 23 -105 25
-113 2 -8 4 -18 4 -22 1 -5 6 -8 11 -8 21 0 10 163 -26 386 -8 49 -14 106 -14
126 0 44 -9 70 -21 62 -5 -3 -9 -1 -9 3 0 35 -23 180 -31 194 -5 11 -6 49 -2
91 5 54 9 66 14 48 6 -21 7 -22 8 -5 1 12 -4 26 -10 32 -7 7 -14 67 -17 152
-4 114 -2 147 12 180 11 28 16 72 16 134 0 50 3 103 7 116 l6 23 13 -28 c11
-26 12 -16 13 87 1 76 6 131 16 159 11 30 15 83 15 181 0 81 4 140 10 144 6 3
10 -4 10 -17 0 -18 2 -20 10 -8 5 8 10 110 11 230 0 118 4 226 9 240 7 24 7
24 18 -10 8 -27 10 15 11 190 1 179 4 231 16 254 13 24 15 97 15 464 0 239 2
433 5 431 2 -3 6 -144 8 -314 2 -184 8 -322 15 -340 8 -23 10 23 11 197 1 187
4 229 16 242 11 11 15 35 14 93 -1 58 -3 69 -9 43 -6 -34 -7 -34 -14 -9 -11
38 -3 114 11 112 9 -2 12 59 13 239 0 133 3 244 5 247 3 2 6 -68 6 -157 1 -89
3 -166 4 -172 1 -5 3 -19 4 -30 0 -11 6 -20 11 -20 6 0 10 47 10 120 0 109 2
120 20 130 18 9 20 21 20 100 0 75 2 88 15 84 13 -5 15 19 15 180 0 154 2 186
14 186 10 0 16 17 20 58 4 31 10 74 15 95 12 53 4 79 -21 71 -14 -4 -18 -2
-14 5 34 55 214 -86 239 -186 11 -43 15 -48 43 -51 32 -3 32 -3 32 45 0 26 1
57 1 69 1 12 14 41 31 65 30 45 42 85 18 61 -15 -15 -32 -16 -23 -2 4 6 -5 10
-19 10 -32 0 -32 1 0 50 16 24 33 39 43 38 12 -2 15 4 12 32 -2 19 -7 76 -11
125 -4 50 -8 73 -9 53 0 -20 -5 -39 -10 -42 -8 -5 -17 58 -35 238 -3 21 -10
43 -18 47 -10 7 -10 11 0 21 6 6 12 25 12 40 0 28 -1 28 -64 28 -53 0 -65 -3
-69 -17 -4 -17 -5 -17 -6 0 -1 15 -15 17 -146 17 l-145 0 0 -151 c0 -90 -4
-148 -9 -144 -5 3 -12 -5 -14 -17 -6 -32 -12 131 -8 229 l3 83 -161 -1 -161 0
0 -46 c0 -25 -3 -43 -7 -39 -8 8 -9 12 -11 59 l-2 27 -134 0 -135 0 -4 -52 -3
-53 -2 53 c-2 52 -2 52 -34 51 -18 -1 -26 -3 -17 -6 9 -2 19 -17 23 -33 8 -43
-4 -163 -19 -175 -6 -5 -14 -17 -18 -25 -3 -8 -6 42 -6 113 l-1 127 -70 0 -70
0 0 -1135z m1237 904 c8 -10 18 -56 23 -109 6 -57 16 -97 25 -106 20 -21 19
-66 -4 -122 -11 -26 -22 -65 -26 -87 l-7 -40 -14 25 c-7 14 -13 32 -14 40 0 8
-6 27 -14 42 -12 23 -12 30 1 55 12 22 14 54 10 154 -2 69 -9 135 -15 146 -8
15 -8 23 1 32 9 9 13 9 16 -1 2 -7 10 -20 18 -29z"/>
<path d="M1301 10753 c0 -27 4 -68 8 -93 l8 -45 2 40 2 40 15 -27 c8 -16 17
-28 20 -28 3 0 2 5 -1 10 -3 6 -1 10 4 10 7 0 11 -40 11 -112 0 -103 4 -122
35 -213 19 -55 35 -114 35 -132 0 -51 22 -137 39 -150 8 -7 26 -13 40 -13 14
-1 50 -9 79 -19 28 -10 52 -16 52 -14 0 15 -66 96 -100 123 -41 32 -65 88 -58
133 3 17 7 12 16 -19 14 -48 25 -59 68 -68 17 -4 41 -16 52 -26 19 -18 42 -76
42 -109 0 -7 14 -37 30 -66 17 -29 34 -75 40 -103 14 -75 47 -139 85 -162 36
-22 45 -38 45 -76 0 -34 28 -31 35 4 4 15 11 35 16 46 6 10 7 16 2 13 -8 -5
-52 72 -92 163 -20 47 -61 190 -61 215 0 34 18 10 50 -66 21 -52 40 -84 52
-87 11 -3 22 -20 28 -46 27 -107 33 -126 42 -126 5 0 9 32 7 73 -1 39 2 93 6
118 9 58 -11 185 -31 193 -8 3 -14 15 -14 27 0 16 -4 19 -17 14 -64 -26 -99
-33 -116 -20 -16 11 -18 35 -21 191 -2 99 -7 212 -11 253 -5 47 -4 72 2 68 6
-4 13 -33 16 -65 4 -32 9 -66 13 -75 10 -27 24 -20 24 12 0 24 14 41 36 41 2
0 4 -18 4 -40 0 -29 -4 -40 -15 -40 -8 0 -17 -10 -20 -22 -8 -33 -1 -288 7
-288 14 0 28 39 28 75 0 22 6 38 15 41 11 4 15 21 15 56 0 43 2 49 15 38 14
-12 17 -24 31 -125 4 -27 9 -44 12 -36 3 9 9 4 18 -15 8 -20 13 -23 13 -11 2
32 21 7 21 -26 0 -18 9 -61 20 -95 13 -43 20 -92 20 -149 0 -106 19 -109 37
-7 10 53 10 87 2 147 -12 84 -7 180 10 201 6 7 15 33 20 57 16 76 40 152 49
158 5 3 13 16 16 29 4 13 29 51 56 86 59 77 90 133 90 163 0 21 -5 23 -50 23
-39 0 -50 -3 -50 -16 0 -15 -2 -15 -25 0 -33 22 -55 20 -55 -4 0 -10 -9 -24
-20 -30 -18 -10 -20 -8 -20 20 l0 30 -63 0 -63 0 -18 -52 c-9 -29 -20 -66 -23
-82 -4 -20 -8 -24 -14 -15 -6 10 -10 4 -15 -19 -5 -23 -12 -32 -23 -30 -20 4
-27 62 -12 92 6 12 16 35 22 51 l12 30 7 -30 c6 -29 7 -28 11 13 l5 42 -143
-1 c-137 0 -142 -1 -149 -22 -4 -12 -12 -25 -18 -29 -13 -8 -46 19 -46 39 0 7
-7 13 -15 13 -12 0 -15 -13 -15 -58 0 -32 5 -63 12 -70 6 -6 14 -50 18 -97 5
-67 11 -88 26 -99 15 -11 19 -30 22 -91 5 -88 -12 -98 -23 -15 -4 28 -11 47
-16 44 -5 -3 -9 2 -9 10 0 8 -8 22 -17 32 -13 12 -19 43 -24 123 -4 58 -8 110
-8 114 -1 5 -5 5 -11 2 -5 -3 -10 1 -10 10 0 11 5 15 15 11 12 -4 15 4 15 39
l0 45 -105 0 -105 0 1 -47z m359 -309 c0 -167 -2 -193 -15 -188 -24 9 -38 82
-33 172 3 58 9 87 19 93 10 6 11 11 3 17 -6 4 -13 35 -16 68 l-4 62 23 -15
c23 -15 23 -18 23 -209z m395 84 c-4 -68 -13 -143 -20 -168 -8 -25 -16 -59
-20 -76 -3 -18 -12 -31 -21 -31 -13 0 -15 10 -9 56 8 75 8 129 0 172 -5 26 -1
50 13 85 11 27 23 57 26 67 3 9 13 17 22 17 14 0 15 -14 9 -122z"/>
<path d="M2380 10786 c0 -7 -12 -26 -27 -42 -14 -15 -37 -52 -50 -81 -24 -52
-68 -98 -109 -114 -16 -6 -25 -19 -30 -46 -3 -21 -12 -47 -19 -58 -7 -11 -16
-41 -20 -65 -4 -25 -14 -66 -22 -93 -19 -58 -15 -238 5 -245 8 -2 9 -8 4 -15
-16 -21 -34 -183 -27 -243 10 -88 13 -94 45 -94 32 0 163 40 156 47 -2 3 5 16
17 29 16 19 30 24 67 24 26 0 56 -7 69 -17 20 -13 51 -16 185 -15 89 0 181 6
206 12 25 6 76 16 113 20 38 5 75 14 83 20 10 9 24 8 59 -5 32 -13 57 -16 87
-10 24 4 72 10 108 14 36 5 92 18 125 29 33 12 76 22 95 22 20 0 47 8 60 18
14 9 36 22 50 29 25 11 25 11 -10 13 -74 3 5 19 98 19 86 1 257 30 307 52 11
5 44 14 73 19 30 5 58 12 63 16 5 3 49 9 97 14 98 9 183 38 235 78 19 15 43
32 53 39 17 10 17 13 4 22 -11 8 -1 11 40 11 33 0 71 8 95 20 22 11 45 19 50
20 6 0 36 16 67 35 48 30 57 41 67 80 7 28 21 51 37 62 14 10 41 30 59 46 28
23 41 27 99 27 50 0 66 3 66 14 0 11 -16 13 -72 11 -73 -3 -91 4 -81 32 3 8
21 13 48 13 25 0 50 6 59 15 8 8 31 15 51 15 31 0 46 9 97 58 35 33 71 78 84
107 l24 50 -892 3 c-706 2 -894 -1 -901 -10 -7 -10 -10 -10 -14 0 -2 6 -10 12
-16 12 -8 0 -7 -4 1 -12 20 -20 14 -28 -19 -28 -22 0 -32 5 -36 20 -5 19 -14
20 -140 20 -124 0 -135 -1 -140 -19 -3 -11 -13 -21 -23 -24 -10 -3 -28 -22
-39 -43 l-22 -39 7 63 6 62 -250 0 -250 0 -7 -36 c-4 -25 -22 -52 -55 -85 -26
-26 -51 -54 -54 -61 -3 -7 -4 6 -1 28 3 23 14 61 25 85 30 67 29 69 -50 69
-52 0 -70 -3 -70 -14z m629 -45 c12 -21 -11 -103 -36 -132 -8 -9 -25 -48 -38
-85 -18 -50 -26 -64 -31 -50 -10 25 -24 1 -24 -41 0 -25 -7 -36 -36 -54 -53
-32 -72 -57 -79 -103 -4 -22 -11 -48 -16 -57 -7 -15 -57 -39 -79 -39 -11 0 43
151 67 190 44 70 72 128 65 135 -4 4 4 4 18 0 14 -4 29 -8 34 -9 5 0 29 42 52
94 37 84 83 170 91 170 1 0 7 -9 12 -19z m-341 -68 c-2 -5 -14 -29 -26 -55
-12 -27 -25 -48 -29 -48 -16 0 -45 -65 -50 -112 -5 -45 -4 -48 13 -41 17 6 18
5 4 -12 -12 -15 -12 -17 -1 -10 22 13 9 -120 -17 -170 l-21 -40 5 60 c3 33 7
68 9 78 2 9 -3 17 -10 17 -17 0 -25 32 -25 107 0 55 3 65 35 103 19 23 35 48
35 55 0 20 49 75 67 75 8 0 13 -3 11 -7z m-272 -78 c-7 -36 -106 -234 -141
-280 -31 -42 -95 -168 -95 -188 0 -21 -14 -22 -30 -2 -27 32 19 153 90 238 22
27 45 71 54 100 17 58 71 141 86 132 5 -3 12 7 16 22 3 15 8 35 12 43 9 23 15
-26 8 -65z m97 -248 c5 -21 15 -41 21 -43 15 -6 1 -157 -14 -162 -7 -2 -8 -29
-4 -70 7 -78 -10 -69 -21 10 -4 26 -11 50 -16 54 -5 3 -9 17 -9 31 0 18 -4 24
-15 20 -15 -6 -20 13 -28 96 -2 29 0 37 14 37 20 0 29 -20 29 -65 0 -41 17
-55 29 -23 6 16 2 40 -10 77 -24 67 -24 83 -2 79 11 -2 21 -18 26 -41z m-172
-463 c6 -4 5 -11 -3 -21 -7 -9 -11 -26 -10 -38 4 -29 -33 -65 -67 -65 -67 1
-100 50 -75 110 l14 33 66 -6 c35 -4 69 -9 75 -13z"/>
<path d="M8411 10763 c-6 -21 -17 -60 -25 -88 l-14 -50 4 60 c4 58 3 57 -16
-30 -11 -49 -27 -110 -35 -134 -8 -25 -13 -47 -10 -49 3 -3 24 16 48 41 28 31
52 47 68 47 31 0 41 7 78 54 17 21 31 36 31 32 0 -4 -16 -42 -36 -84 -29 -61
-37 -93 -41 -150 -2 -49 0 -72 7 -67 5 3 10 1 10 -4 0 -6 -4 -11 -10 -11 -5 0
-10 -4 -10 -10 0 -5 8 -6 18 -3 15 6 15 5 3 -10 -7 -9 -10 -17 -5 -17 5 0 10
-15 11 -33 2 -22 12 -40 34 -59 33 -28 91 -44 112 -32 8 6 8 3 -1 -8 -8 -9
-19 -15 -26 -12 -9 4 -12 -2 -9 -18 2 -13 0 -58 -5 -100 -4 -42 -5 -75 -2 -73
4 2 51 7 106 10 76 4 94 2 79 -6 -45 -26 -64 -53 -75 -105 -12 -59 -23 -68
-85 -79 -63 -11 -72 -14 -72 -31 0 -10 6 -13 16 -8 9 4 37 10 63 15 26 4 55
12 65 17 28 14 68 0 71 -26 5 -34 -23 -70 -64 -81 -39 -11 -63 -5 -80 17 -12
17 -18 10 -28 -30 -6 -26 -4 -28 32 -34 54 -9 60 -14 54 -56 -3 -29 -9 -38
-23 -38 -13 0 -19 -7 -19 -23 0 -13 -5 -28 -11 -34 -8 -8 -8 -13 0 -17 6 -4
11 -22 11 -40 0 -31 3 -33 53 -45 28 -8 63 -20 77 -28 17 -9 18 -12 5 -8 -11
3 -51 13 -90 21 -77 16 -99 29 -75 44 13 8 13 10 -2 10 -9 0 -19 8 -22 18 -3
9 -4 -4 -3 -30 1 -27 -2 -49 -7 -51 -5 -2 20 -16 55 -31 93 -42 98 -48 92
-111 -5 -45 -2 -58 16 -81 11 -14 21 -35 21 -45 0 -11 6 -19 13 -19 9 0 14 17
16 53 1 28 6 56 12 61 6 6 9 5 9 -5 0 -11 2 -11 8 -1 11 16 3 161 -9 184 -5
10 -28 23 -50 30 -38 11 -40 12 -18 20 13 5 31 7 41 5 12 -3 15 0 11 11 -5 12
-2 14 11 9 10 -4 19 -7 22 -7 16 0 35 -76 44 -180 6 -68 14 -127 19 -130 5 -3
8 -28 6 -55 -2 -42 -1 -46 7 -22 7 18 17 27 32 27 12 0 27 5 34 12 16 16 16
-5 1 -35 -11 -21 -11 -21 7 -5 11 11 22 46 30 95 21 137 36 208 45 218 11 12
11 -7 -1 -179 -6 -77 -14 -143 -20 -146 -5 -3 -12 -82 -15 -175 -8 -236 -15
-336 -25 -330 -10 6 -20 -45 -20 -101 0 -33 4 -44 16 -44 8 0 12 -4 9 -10 -3
-5 -1 -10 4 -10 6 0 11 -12 11 -26 0 -22 2 -25 15 -14 12 10 15 10 15 -4 0
-22 1 -24 17 -78 7 -26 17 -74 22 -105 7 -53 9 -56 18 -33 10 24 11 22 28 -30
13 -41 19 -110 24 -265 4 -115 9 -190 10 -165 5 91 13 145 23 151 5 4 9 37 8
75 -3 104 -2 111 18 110 9 0 26 -9 38 -19 20 -18 21 -26 16 -139 -5 -116 9
-221 30 -234 4 -3 8 -59 8 -125 0 -66 5 -129 10 -139 6 -11 13 -47 17 -82 6
-60 7 -61 15 -28 4 19 7 72 6 118 0 45 2 85 6 89 3 3 6 -20 7 -53 2 -92 13
-169 25 -167 15 3 24 -99 24 -264 0 -96 3 -132 13 -135 9 -4 13 -76 17 -299
l5 -294 7 190 c5 105 8 225 8 268 0 43 4 76 9 73 10 -7 15 589 5 630 -6 25 -8
26 -14 9 -6 -16 -9 -12 -14 20 -4 22 -12 51 -17 65 -6 13 -14 71 -19 128 -9
119 -20 145 -21 51 l0 -64 -14 52 c-18 67 -52 133 -68 133 -9 0 -8 3 1 9 23
14 28 196 9 278 -21 90 -23 127 -8 195 10 48 10 72 -4 149 -8 51 -21 99 -27
106 -9 11 -25 164 -27 261 -1 13 -5 20 -11 17 -6 -4 -10 12 -10 39 0 25 -4 46
-9 46 -4 0 -6 -12 -3 -27 2 -16 2 -25 -1 -22 -4 3 -12 40 -18 83 -11 76 -12
78 -24 48 -7 -16 -19 -56 -25 -88 -14 -67 -34 -110 -63 -138 l-20 -20 7 57 c3
32 15 90 25 130 26 101 51 244 51 293 0 56 11 105 21 98 5 -3 9 -1 9 5 0 5 -6
12 -12 14 -8 4 -7 6 4 6 9 1 19 9 21 19 3 9 6 -30 7 -88 2 -84 4 -95 9 -55 9
69 5 172 -8 220 -6 22 -11 73 -11 114 0 74 0 74 20 56 11 -10 22 -16 24 -14
11 14 96 283 96 306 1 28 38 119 39 95 1 -7 5 -10 11 -7 6 3 7 -1 4 -9 -3 -9
-2 -16 4 -16 17 0 24 -79 8 -108 -34 -63 -47 -115 -104 -412 l-9 -45 -10 45
c-11 45 -11 45 -13 -35 -2 -59 -4 -71 -9 -45 -6 29 -8 22 -14 -44 -10 -110 -9
-233 2 -254 28 -51 82 -261 91 -352 5 -55 16 -121 24 -147 18 -59 27 -190 16
-237 -6 -27 -3 -45 11 -73 10 -21 29 -90 41 -153 12 -63 26 -118 31 -121 10
-7 43 -133 52 -202 9 -62 16 -77 25 -51 7 19 13 -25 26 -208 3 -48 10 -85 15
-82 5 3 9 2 9 -3 2 -73 22 -239 30 -241 5 -2 10 -14 10 -26 0 -13 14 -50 31
-82 29 -55 32 -69 38 -194 6 -133 7 -134 20 -90 17 59 16 202 -3 315 -21 128
-25 214 -7 186 7 -11 10 -9 16 8 4 13 4 25 1 28 -3 4 -6 1 -6 -5 0 -7 -4 -12
-10 -12 -5 0 -10 10 -10 23 0 12 -7 31 -15 41 -8 11 -15 29 -15 40 0 16 -2 18
-9 7 -11 -18 -17 1 -27 94 -6 58 -9 65 -15 40 -4 -20 -7 -4 -8 52 0 45 -5 93
-11 107 -13 36 5 34 41 -5 27 -29 49 -83 49 -121 0 -10 22 -35 48 -56 27 -21
47 -43 45 -49 -7 -20 26 -40 78 -47 40 -6 62 -15 91 -42 21 -19 46 -35 56 -35
42 -3 60 -7 70 -13 6 -3 16 2 21 11 8 14 10 8 6 -26 -6 -53 1 -81 21 -81 10 0
14 14 16 48 1 26 2 54 4 62 1 8 2 21 3 28 1 6 8 12 16 12 8 0 15 5 15 11 0 5
-4 7 -10 4 -5 -3 -10 -2 -10 4 0 5 4 12 9 16 12 7 23 -28 15 -49 -9 -22 12
-20 36 4 17 17 20 31 18 78 -3 50 -6 57 -28 63 -23 6 -23 7 -3 8 12 1 25 6 28
12 4 6 13 8 21 5 8 -3 14 -1 14 4 0 6 8 10 18 10 11 0 27 9 38 21 17 19 20 43
25 218 3 108 6 176 8 151 2 -25 2 -57 1 -72 -1 -16 3 -28 8 -28 15 0 15 -149
0 -168 -8 -10 -9 -13 -1 -9 8 5 6 -13 -5 -55 -16 -60 -19 -63 -52 -69 -19 -4
-26 -7 -15 -8 11 -1 29 -4 41 -7 14 -4 31 3 49 19 25 21 29 32 31 85 1 44 -2
62 -12 66 -10 4 -14 24 -14 65 0 55 3 61 29 81 31 21 31 22 46 178 4 46 1 58
-20 86 -24 32 -25 38 -24 182 1 82 5 160 9 174 7 21 8 18 10 -20 l2 -45 9 60
c14 90 7 657 -8 662 -13 5 -21 -17 -25 -64 -2 -32 -16 -36 -18 -5 -8 107 -9
342 0 342 5 0 10 -9 10 -19 0 -15 5 -18 23 -14 20 4 20 3 4 -7 -18 -11 -18
-13 3 -27 17 -12 19 -17 9 -24 -10 -6 -11 -9 -1 -9 8 0 12 -17 12 -52 0 -28 5
-77 10 -107 6 -31 14 -132 18 -226 8 -156 9 -161 10 -63 2 97 14 145 25 101 3
-10 5 7 6 37 1 42 4 51 12 38 5 -10 13 -127 18 -260 7 -221 8 -199 8 247 0
479 -3 506 -25 235 -9 -99 -9 -93 -11 110 -1 138 -5 210 -11 200 -7 -11 -11
-3 -16 30 -7 40 -9 42 -15 20 -4 -14 -7 -73 -8 -132 -1 -156 -17 -140 -20 20
-2 154 -5 169 -35 193 -29 23 -36 9 -36 -73 0 -37 -4 -70 -10 -73 -5 -3 -10 2
-11 12 -1 10 -10 -9 -21 -42 -17 -50 -21 -83 -20 -195 1 -83 5 -136 12 -138 5
-2 10 -22 10 -43 0 -22 -4 -38 -9 -35 -8 6 -21 -141 -21 -254 0 -90 -10 -142
-25 -136 -10 3 -12 -28 -11 -133 1 -145 -6 -171 -45 -171 -10 0 -28 -10 -39
-22 -16 -17 -19 -18 -15 -5 4 10 2 17 -4 17 -13 0 -15 76 -2 84 5 4 12 0 14
-6 3 -7 6 -4 7 7 16 204 21 262 30 325 5 41 12 180 15 309 5 227 12 287 41
344 17 33 6 35 -31 5 -29 -23 -85 -130 -85 -163 0 -11 -6 -51 -14 -90 -8 -38
-17 -118 -21 -177 -5 -81 -10 -105 -20 -102 -19 8 -72 -92 -80 -151 -9 -58
-15 -72 -25 -55 -4 6 -10 -40 -14 -104 -4 -63 -13 -140 -22 -172 -17 -67 -65
-178 -87 -204 -8 -10 -12 -21 -9 -25 4 -4 -1 -5 -12 -3 -11 2 -27 -8 -40 -25
-19 -26 -21 -39 -19 -160 2 -73 -1 -138 -6 -146 -18 -27 -28 0 -35 91 -3 51
-10 94 -16 96 -5 2 -6 10 -3 18 3 8 6 32 7 52 4 76 30 112 81 112 18 0 28 17
19 32 -13 20 1 187 14 174 7 -8 32 14 32 28 0 6 -5 4 -10 -4 -7 -10 -10 11
-10 68 0 66 -3 84 -16 89 -13 5 -14 16 -9 61 8 65 20 91 72 154 41 51 88 159
104 241 5 28 14 56 19 61 14 14 12 28 -2 20 -10 -6 -10 -4 0 7 16 18 15 47 -3
65 -8 9 -15 33 -15 55 0 45 -16 83 -31 74 -5 -4 -10 6 -10 22 -5 156 2 200 36
237 14 15 29 48 35 74 10 51 6 -124 -8 -303 -4 -49 -4 -106 -1 -125 4 -19 7
-27 8 -18 0 10 7 15 15 12 9 -4 15 9 19 45 3 27 22 88 41 135 20 47 39 104 42
127 8 49 58 112 72 91 13 -20 30 5 39 58 7 43 7 44 13 15 7 -30 7 -30 14 10
19 105 18 102 27 80 5 -13 8 2 9 45 1 36 5 83 9 105 7 36 8 33 9 -30 2 -127
22 -183 22 -64 1 41 6 94 12 119 6 25 12 87 14 139 2 51 7 98 12 105 4 6 8 18
7 26 0 8 5 21 12 28 18 19 16 32 -4 33 -10 0 -3 5 16 11 26 7 31 12 20 19 -8
5 -10 9 -5 9 5 0 -9 13 -32 29 -25 19 -44 43 -52 65 -6 20 -15 36 -19 36 -12
0 -51 76 -51 98 0 12 -4 24 -10 27 -5 3 -10 -1 -10 -10 0 -28 -20 -5 -21 23 0
24 -2 23 -17 -13 l-17 -40 -5 115 -5 115 -167 3 -168 2 0 -109 c0 -121 -8
-180 -21 -159 -5 7 -10 72 -11 143 l-2 130 -6 -140 -6 -140 -2 138 -2 137
-205 0 c-188 0 -205 -1 -205 -17 -1 -10 -7 -29 -16 -43 -14 -24 -15 -24 -8 18
l6 42 -121 0 c-117 0 -122 -1 -130 -22 -18 -48 -41 -92 -37 -73 2 11 7 37 11
58 l6 37 -66 0 -65 0 0 -29 c0 -16 -6 -32 -12 -34 -10 -4 -10 -8 1 -15 9 -7
10 -12 2 -16 -6 -4 -11 -2 -11 4 0 6 -4 8 -10 5 -6 -4 -10 12 -10 39 l0 46
-159 0 c-158 0 -160 0 -163 -22 -2 -13 -10 -23 -18 -23 -8 0 -16 10 -18 23 -3
21 -8 22 -92 22 l-89 0 -10 -37z m853 -118 c-14 -22 -23 -25 -74 -25 -50 0
-61 -4 -81 -26 -13 -14 -32 -35 -41 -45 -10 -10 -15 -19 -12 -19 4 0 1 -7 -6
-15 -10 -12 -10 -15 1 -15 12 0 12 -2 0 -9 -10 -7 -12 -28 -6 -99 5 -59 3 -92
-4 -96 -19 -12 -35 39 -38 122 -2 72 0 82 15 82 13 0 14 2 4 9 -11 7 -11 11 0
22 8 8 24 30 36 51 12 20 30 39 38 42 9 3 14 12 11 20 -4 10 11 13 66 15 39 1
74 4 76 7 2 2 10 4 18 4 11 0 10 -5 -3 -25z m96 -193 c0 -38 -51 -172 -66
-172 -7 0 -11 -6 -8 -13 6 -17 -17 -38 -45 -40 -12 -1 -21 -5 -21 -10 0 -4 -4
-6 -9 -3 -14 9 -67 -39 -85 -78 -12 -25 -16 -64 -16 -146 0 -99 -2 -111 -15
-100 -12 10 -15 9 -15 -6 0 -16 -2 -17 -10 -4 -15 21 -2 260 15 285 8 11 29
37 49 57 31 34 38 37 61 28 64 -24 68 -21 98 113 38 163 35 156 53 133 8 -11
14 -31 14 -44z m911 -148 c10 -9 23 -42 29 -73 6 -31 16 -72 21 -92 5 -20 9
-46 9 -58 0 -11 6 -21 13 -22 10 0 10 -2 0 -6 -7 -2 -13 -14 -13 -26 0 -12 -5
-29 -10 -37 -7 -11 -10 -5 -10 24 0 31 -3 36 -13 27 -8 -6 -16 -8 -19 -5 -3 3
-9 -19 -13 -48 -9 -60 -23 -106 -24 -75 -1 10 -5 15 -11 12 -6 -3 -10 5 -10
19 0 14 -5 28 -10 31 -6 4 -7 11 -4 17 4 6 0 14 -7 19 -8 5 -9 9 -3 9 7 0 12
17 12 40 0 22 3 44 7 49 3 5 0 31 -6 58 -6 26 -13 58 -15 70 -2 12 -9 34 -14
49 -6 14 -7 30 -4 36 9 14 73 2 95 -18z m-627 -4 c14 0 7 -72 -13 -123 -24
-61 -50 -228 -52 -327 -2 -58 -4 -97 -6 -87 -3 9 -9 14 -15 11 -7 -4 -8 -2 -4
4 4 7 3 12 -2 12 -10 0 -14 47 -16 160 -1 62 7 101 44 223 25 81 46 143 48
137 2 -5 9 -10 16 -10z m472 -57 c4 -16 10 -33 15 -39 8 -10 9 -26 12 -159 4
-221 1 -305 -10 -317 -7 -6 -13 -26 -13 -44 0 -17 -9 -42 -19 -55 -20 -24 -20
-22 -19 298 0 184 4 321 9 317 5 -3 6 2 3 10 -3 9 -1 16 5 16 6 0 14 -12 17
-27z m-261 -456 c13 17 15 16 21 -14 3 -18 10 -33 15 -33 5 0 6 -17 3 -37 -5
-36 -11 -52 -48 -118 -11 -22 -16 -56 -16 -122 0 -76 -3 -93 -15 -93 -8 0 -15
-8 -16 -17 0 -10 -6 4 -12 31 -18 75 2 376 26 400 9 10 18 25 19 34 0 9 3 2 5
-16 4 -31 5 -33 18 -15z m-255 -140 c0 -44 -29 -244 -39 -268 -5 -13 -15 -68
-21 -123 -7 -54 -22 -126 -35 -160 -12 -33 -28 -87 -36 -119 -8 -39 -16 -54
-23 -47 -17 17 -18 95 -2 156 8 33 18 84 21 114 9 85 34 200 56 255 10 28 19
55 19 60 0 5 10 42 22 82 22 73 38 94 38 50z m112 -358 c7 -4 6 -13 -1 -27 -6
-11 -11 -40 -11 -65 0 -24 -11 -77 -25 -117 -14 -40 -25 -85 -25 -99 0 -30 -9
-45 -29 -49 -11 -2 -13 13 -9 86 3 48 11 99 18 112 7 14 16 57 20 98 5 49 13
79 26 93 l19 21 4 -23 c1 -13 8 -27 13 -30z m438 -632 c0 -95 -17 -175 -31
-142 -5 14 -8 16 -9 5 -2 -8 -2 -18 -1 -22 0 -5 -3 -8 -8 -8 -6 0 -9 -8 -9
-17 1 -38 -65 -311 -88 -362 -13 -29 -21 -58 -17 -64 4 -6 1 -7 -7 -2 -9 6
-11 -2 -8 -31 3 -22 3 -31 1 -21 -3 9 -9 15 -14 12 -12 -8 -11 30 2 140 11 87
53 221 99 310 11 21 20 56 20 76 0 21 7 50 14 66 8 15 20 56 27 90 6 35 16 60
20 57 5 -3 9 -42 9 -87z m-125 -868 c5 -21 1 -31 -30 -57 -34 -31 -39 -32
-125 -32 -93 0 -140 11 -140 32 0 10 23 13 87 12 138 -2 138 -2 140 89 1 45
-3 75 -8 71 -5 -3 -9 4 -9 16 0 14 4 19 13 14 9 -6 9 -4 -1 8 -11 14 -9 16 18
14 24 -2 30 2 32 18 1 12 5 -19 9 -69 3 -49 10 -102 14 -116z"/>
<path d="M4531 8241 c-1 -86 -2 -93 -16 -75 -14 19 -14 18 -15 -3 0 -13 -5
-23 -11 -23 -6 0 -9 7 -5 15 3 8 1 15 -4 15 -5 0 -11 26 -13 58 -2 31 -3 13
-3 -41 l0 -99 -49 -42 c-27 -24 -44 -45 -39 -49 6 -3 35 -9 65 -13 30 -4 57
-12 61 -18 4 -6 13 -11 20 -11 8 0 16 -19 20 -48 3 -27 11 -54 16 -60 6 -7 15
-28 20 -47 l9 -35 11 28 c7 15 16 28 22 28 15 2 22 4 48 13 18 6 21 12 16 29
-9 32 -13 33 -29 11 -13 -17 -14 -14 -15 41 -1 33 -7 78 -15 100 -8 22 -15 60
-15 84 0 37 -2 42 -15 31 -12 -10 -16 -9 -21 4 -3 9 -10 14 -14 11 -5 -3 -11
30 -15 72 -10 121 -12 125 -14 24z"/>
<path d="M7040 8233 c-8 -3 -26 -19 -40 -35 -32 -37 -86 -45 -363 -54 -114 -4
-204 -11 -199 -16 13 -13 191 -27 336 -28 126 0 130 1 200 34 99 48 112 50
180 26 33 -11 66 -20 75 -20 9 0 43 -14 76 -30 60 -30 105 -39 105 -20 0 5
-10 15 -22 21 -13 7 -40 27 -60 45 -60 53 -230 99 -288 77z"/>
<path d="M6240 8098 c14 -5 32 -14 41 -18 9 -5 37 -12 63 -15 26 -4 66 -13 89
-21 41 -12 39 -13 -63 -13 -58 0 -123 4 -145 10 -22 6 -74 18 -115 27 -61 13
-70 17 -50 23 16 4 -1 7 -48 8 -87 1 -96 -18 -16 -33 27 -6 51 -13 54 -16 3
-4 14 -12 25 -19 17 -10 11 -11 -35 -7 -122 13 -345 19 -335 8 12 -12 100 -31
153 -34 20 -1 -26 -4 -103 -8 -136 -6 -160 -10 -272 -53 -63 -23 -160 -27
-225 -8 -64 18 -78 11 -78 -39 0 -38 -2 -40 -29 -40 -37 0 -62 10 -55 21 3 5
-2 9 -11 9 -9 0 -14 -4 -11 -9 3 -5 -15 -12 -41 -16 -33 -5 -55 -15 -75 -37
-19 -21 -45 -34 -80 -42 -52 -11 -66 -24 -83 -79 -4 -16 -12 -12 -50 29 -42
44 -49 57 -46 77 1 5 -13 7 -30 5 l-32 -3 -1 -98 c0 -73 3 -101 15 -112 17
-17 69 -21 117 -10 29 7 34 5 39 -14 4 -17 8 -19 20 -10 11 10 13 9 11 -1 -2
-8 6 -15 17 -16 48 -4 105 -26 120 -47 17 -24 21 -92 5 -82 -14 9 -13 -166 1
-202 14 -33 13 -73 -1 -87 -15 -15 -12 -52 4 -65 11 -9 14 -37 13 -111 0 -55
2 -103 6 -106 4 -4 7 1 7 10 0 32 25 10 28 -25 2 -18 9 -37 15 -41 9 -6 8 -8
-2 -8 -10 0 -12 -13 -9 -56 3 -31 10 -59 16 -63 6 -4 11 -28 10 -54 0 -26 2
-51 6 -54 3 -4 6 23 6 58 0 42 5 72 15 85 8 10 15 27 15 37 0 10 4 16 9 12 5
-3 11 3 13 12 5 23 48 -56 48 -87 0 -40 19 -56 90 -80 54 -18 67 -26 53 -31
-10 -5 11 -8 51 -8 61 -1 72 -4 103 -31 19 -17 45 -30 61 -30 21 0 24 -2 12
-10 -9 -6 -10 -10 -3 -10 6 0 19 -8 29 -17 16 -17 16 -18 -7 -24 -24 -6 -24
-6 6 -19 19 -7 56 -10 100 -7 87 6 45 -9 -60 -22 -61 -7 -50 -9 91 -10 214 -1
284 -9 277 -29 -6 -13 8 -14 113 -6 65 5 232 10 369 10 183 1 269 5 320 17
l70 15 -63 1 c-35 0 -72 -3 -82 -9 -22 -12 -50 -3 -50 16 0 7 -9 19 -20 27
-19 13 -19 14 13 37 29 22 43 25 157 27 68 1 129 -2 135 -7 7 -6 10 0 9 18 -1
25 -4 27 -50 29 -168 8 -449 44 -479 61 -15 9 28 11 187 12 114 0 209 4 212 9
3 4 29 11 58 15 29 4 70 12 91 17 32 8 36 13 27 24 -10 12 -7 16 11 24 33 12
195 40 304 50 67 7 107 17 155 40 56 27 76 31 148 31 79 0 83 1 66 18 -24 24
-168 29 -249 9 -33 -9 -85 -18 -115 -22 -30 -3 -100 -12 -155 -20 -177 -25
-375 -25 -375 0 0 11 -12 15 -42 16 -42 2 -42 2 12 10 30 4 84 10 120 14 94
11 100 16 100 80 0 29 -4 56 -9 59 -10 7 -22 -26 -24 -69 -2 -22 -6 -29 -19
-27 -9 1 -19 -2 -23 -8 -3 -5 -13 -10 -21 -10 -10 0 -9 5 6 20 20 20 23 35 20
104 -3 56 -16 86 -39 86 -23 0 -27 -12 -36 -106 -6 -61 -4 -73 12 -89 17 -18
17 -18 -9 -12 -17 5 -28 3 -31 -6 -5 -12 -11 34 -8 64 1 9 -5 19 -14 22 -8 4
-15 18 -15 32 0 19 -8 29 -32 39 -20 9 -26 15 -15 15 24 1 21 18 -5 25 -13 3
-97 7 -188 8 l-165 2 209 5 c155 5 210 9 214 19 2 7 25 12 60 13 57 1 57 1 17
10 -22 4 -60 8 -85 9 -30 0 -40 3 -30 9 8 5 94 11 192 13 113 3 181 8 190 16
9 7 61 12 129 14 107 3 111 4 59 12 l-55 9 35 10 c50 13 229 5 239 -11 5 -9
160 -72 177 -72 0 0 1 -7 1 -15 0 -8 -7 -15 -16 -15 -14 0 -14 -2 0 -15 24
-25 163 -46 279 -43 58 2 151 -1 206 -6 117 -10 147 -5 161 26 11 23 11 23 18
-5 4 -15 5 -30 2 -33 -3 -3 -39 -9 -79 -14 l-73 -8 80 2 80 1 1 41 1 41 -71 8
c-39 5 -146 9 -237 10 -241 3 -303 30 -413 180 -30 40 -65 76 -78 80 -13 4
-36 17 -53 30 -55 41 -117 67 -174 72 -31 3 -67 12 -81 19 -63 33 -193 54
-349 56 -86 1 -122 3 -81 5 96 4 129 11 109 24 -9 5 37 9 126 9 211 0 413 -47
524 -122 73 -49 84 -64 126 -167 47 -117 94 -141 282 -141 184 0 423 60 423
107 0 13 -9 15 -64 9 -35 -3 -86 -13 -112 -22 -53 -16 -332 -32 -378 -20 -45
11 -32 36 19 36 71 0 286 66 270 82 -3 3 20 10 52 17 63 12 112 35 58 26 -123
-19 -190 -25 -300 -25 -140 0 -168 8 -205 61 -60 83 -310 205 -470 228 -47 7
-104 20 -128 28 -36 14 -86 15 -339 11 -290 -6 -295 -5 -267 12 46 30 154 43
379 45 116 2 258 8 318 13 75 8 150 8 250 1 105 -8 160 -7 213 1 l71 12 -19
39 c-13 27 -27 40 -46 44 -36 8 -76 28 -137 70 -94 64 -96 66 -101 120 -5 53
-14 74 -14 34 -1 -27 -23 -62 -43 -65 -6 -1 -48 -5 -92 -9 l-80 -8 44 -10 c32
-6 40 -11 30 -18 -11 -7 -10 -9 4 -9 10 0 35 -11 55 -25 20 -14 46 -25 58 -25
11 0 52 -20 90 -45 38 -24 76 -45 84 -45 11 0 11 -3 2 -12 -9 -9 -22 -8 -54 3
-33 11 -110 14 -318 15 -343 2 -526 6 -480 11 85 10 38 21 -120 28 -130 5
-184 12 -223 26 l-52 19 265 -6 c177 -5 267 -10 272 -18 5 -7 84 -13 235 -16
125 -3 234 -9 242 -14 10 -6 12 -6 7 3 -14 23 -63 39 -150 50 -50 7 -94 15
-98 17 -19 12 -5 22 36 28 34 5 44 11 39 22 -3 7 -11 14 -18 14 -6 0 -24 11
-39 25 -34 31 -79 39 -182 32 -82 -6 -83 -6 -63 14 10 10 19 27 19 37 0 10 -3
13 -8 6 -20 -30 -50 -34 -198 -24 -81 6 -154 15 -163 19 -30 16 -160 31 -263
30 -81 0 -98 -3 -78 -11z m-3 -105 c87 -14 108 -15 188 -2 95 14 563 20 542 7
-7 -4 -31 -8 -54 -8 -48 0 -75 -8 -67 -21 3 -5 -62 -9 -153 -9 -135 -1 -164
-3 -198 -20 -29 -14 -62 -19 -123 -20 -46 0 -81 4 -78 9 3 5 -9 12 -27 17
l-32 8 45 4 c40 4 35 6 -50 18 -52 7 -128 13 -167 13 -42 1 -73 5 -73 11 0 16
137 12 247 -7z"/>
<path d="M1848 8090 c-30 -18 -20 -30 23 -30 24 0 38 -4 34 -10 -3 -5 -29 -10
-56 -10 -49 0 -134 -34 -167 -66 -7 -8 -25 -14 -40 -14 -20 -1 -23 -3 -12 -9
8 -5 38 -5 65 -1 65 11 161 46 144 53 -28 11 18 7 50 -4 32 -11 57 -51 45 -70
-3 -5 -16 -9 -30 -9 -14 0 -24 -6 -24 -14 0 -18 -21 -26 -73 -27 -23 -1 -55
-5 -72 -9 -59 -14 0 -20 220 -22 188 -3 220 -5 220 -18 0 -11 -14 -16 -50 -18
-27 -2 -56 -9 -64 -15 -10 -8 -86 -13 -245 -15 -185 -3 -233 -6 -242 -17 -6
-8 -22 -19 -35 -24 -16 -7 13 -8 90 -4 78 4 112 3 108 -4 -10 -16 60 -25 247
-32 110 -4 171 -10 173 -17 5 -16 -226 -27 -307 -14 -37 5 -129 7 -214 3 -169
-7 -184 -13 -205 -90 -14 -51 -29 -57 -135 -51 -55 2 -80 8 -95 22 -21 19 -21
19 -21 -2 0 -12 9 -31 20 -42 17 -17 33 -20 113 -20 73 0 101 -4 132 -20 33
-17 59 -20 162 -20 114 0 154 -9 101 -24 -46 -12 -208 -6 -245 9 -19 8 -46 15
-58 15 -13 0 -25 -7 -29 -15 -4 -12 -27 -15 -115 -15 -99 0 -111 -2 -121 -19
-7 -13 -7 -22 0 -26 5 -3 10 -16 10 -28 1 -21 1 -21 23 4 17 20 37 28 92 37
38 6 70 10 72 8 2 -1 6 -17 9 -34 6 -30 5 -32 -23 -32 -16 0 -33 4 -38 9 -6 5
-22 7 -37 4 -29 -6 -37 -27 -28 -82 4 -30 10 -35 50 -47 25 -8 61 -14 80 -15
19 0 29 -3 23 -6 -22 -8 -14 -21 15 -26 15 -2 5 -5 -24 -6 -27 0 -56 -7 -62
-13 -10 -10 -17 -10 -33 0 -18 12 -19 11 -13 -15 11 -46 37 -66 96 -71 37 -3
70 2 111 16 l58 21 -20 -32 c-27 -44 -77 -60 -175 -54 -62 3 -82 8 -92 22 -13
18 -14 17 -14 -8 0 -34 -23 -36 -38 -3 -8 17 -26 29 -63 40 -30 8 -55 14 -57
12 -1 -2 12 -23 30 -47 32 -41 39 -45 138 -72 58 -16 143 -31 190 -34 205 -12
64 -45 -164 -38 -87 2 -168 7 -178 11 -16 5 -19 2 -16 -17 2 -16 18 -32 48
-49 40 -22 60 -26 190 -31 80 -3 125 -7 100 -8 l-45 -3 30 -13 30 -14 -30 -1
c-16 0 -43 -7 -59 -15 -18 -10 -57 -15 -110 -15 -74 0 -106 -9 -106 -30 0 -3
34 -6 76 -8 41 -1 87 -8 102 -16 25 -13 34 -12 82 4 77 25 131 33 185 24 50
-7 105 -46 84 -59 -17 -11 10 -25 51 -25 19 0 53 -7 75 -14 22 -8 88 -19 147
-25 97 -10 148 -24 148 -42 0 -14 -40 -21 -150 -26 -113 -6 -140 -14 -119 -40
8 -9 2 -14 -23 -22 -23 -6 51 -9 248 -10 230 -1 284 -4 300 -16 16 -12 77 -15
344 -17 179 -1 267 -4 195 -5 -88 -3 -132 -8 -137 -16 -4 -7 -48 -15 -115 -19
-59 -4 -133 -11 -163 -17 -30 -5 -111 -11 -180 -12 -69 -1 -113 -4 -97 -6 30
-5 37 -22 10 -25 -10 -1 91 -5 225 -8 218 -4 244 -7 253 -22 9 -16 30 -18 209
-18 187 0 200 -1 210 -19 14 -27 13 -31 -7 -31 -13 -1 -10 -5 10 -16 41 -22
353 -6 372 19 10 14 29 17 103 17 l92 0 6 -27 c6 -25 79 -113 94 -113 4 0 17
30 29 68 13 37 31 81 40 97 10 17 26 54 36 83 10 28 22 52 26 52 4 0 10 11 13
24 3 13 14 26 24 28 15 4 17 13 14 42 -3 30 -1 35 11 30 9 -3 18 -20 20 -37 3
-22 4 -17 4 14 0 43 26 127 59 191 11 20 14 77 14 232 0 183 2 206 17 215 15
8 18 34 24 183 5 124 11 185 23 217 14 35 15 53 6 99 -5 31 -15 61 -20 66 -6
6 -10 27 -10 47 0 21 -4 40 -9 43 -5 3 -11 19 -13 36 -4 24 -1 30 13 30 10 0
23 9 29 20 14 27 10 108 -7 122 -7 6 -13 20 -13 32 0 11 -5 28 -11 36 -8 12
-9 10 -4 -7 7 -26 -19 -33 -29 -8 -7 19 -35 19 -77 0 l-34 -16 52 6 51 5 -25
-67 c-34 -92 -37 -97 -59 -102 -36 -7 -45 -40 -11 -42 13 -1 6 -5 -18 -11 -22
-5 -76 -18 -119 -30 -67 -17 -95 -19 -179 -13 -87 6 -176 22 -139 24 8 1 10 6
6 13 -14 22 -11 48 5 48 14 0 14 2 1 10 -24 16 -90 12 -96 -5 -8 -21 -206 -22
-223 -1 -9 11 -42 13 -154 11 -78 -1 -173 2 -211 7 -80 12 -197 2 -193 -15 1
-9 -40 -12 -153 -12 -160 0 -206 10 -240 50 -10 13 -9 15 10 15 13 0 24 8 27
20 5 18 14 20 122 21 75 1 105 4 86 9 l-30 8 32 1 c41 1 52 18 16 24 -26 4
-26 4 5 6 17 0 32 5 32 10 0 5 -52 12 -115 16 -63 4 -118 11 -121 16 -3 5 -34
9 -70 9 -44 0 -73 5 -90 17 -32 20 -238 31 -266 13z m-88 -674 c0 -13 -56
-113 -73 -131 -10 -11 -33 -44 -49 -73 -17 -29 -40 -59 -51 -67 -30 -21 -73
-19 -98 6 -30 30 -8 53 45 46 43 -6 76 6 76 27 0 7 9 21 19 30 10 9 22 37 26
62 4 32 15 53 38 74 27 25 67 41 67 26z m590 -136 c22 -7 20 -8 -15 -9 -52 -1
-224 -58 -251 -83 -14 -12 -47 -23 -90 -29 -37 -5 -71 -13 -74 -18 -3 -5 -19
-12 -37 -15 -17 -4 -34 -14 -37 -22 -3 -8 -12 -14 -21 -14 -42 0 -74 -30 -92
-86 -10 -32 -25 -60 -37 -66 -18 -10 -19 -8 -12 48 9 80 36 136 78 162 20 12
40 22 46 22 6 0 23 5 39 11 22 8 24 12 13 19 -13 9 -13 10 0 10 11 1 10 4 -4
15 -18 14 -11 15 72 15 51 0 92 -4 92 -9 0 -5 -10 -12 -22 -14 -15 -3 -11 -5
12 -6 49 -1 80 9 74 24 -4 9 16 18 63 29 108 25 162 29 203 16z m14 -172 c10
-13 16 -44 16 -74 0 -47 -2 -52 -25 -58 -27 -7 -54 3 -74 28 -7 8 -31 17 -54
21 -34 5 -92 22 -105 30 -1 1 0 10 4 19 4 12 19 16 54 16 28 0 54 6 62 14 32
31 102 34 122 4z m-304 -165 c-86 -4 -130 -12 -130 -23 0 -6 15 -10 34 -10 22
0 36 -6 40 -16 6 -15 23 -16 159 -11 83 3 170 11 192 16 39 10 292 14 268 4
-26 -10 -12 -23 23 -23 31 0 35 2 24 15 -11 13 6 15 141 15 99 0 149 -4 139
-10 -13 -8 -13 -10 0 -14 8 -3 29 -7 45 -9 47 -6 -242 -12 -430 -8 -165 3
-172 2 -225 -23 -53 -25 -50 -26 28 -10 13 3 30 0 37 -6 7 -6 25 -8 41 -4 57
13 204 17 204 5 0 -7 10 -15 22 -20 13 -5 -40 -10 -143 -15 -90 -4 -193 -11
-229 -17 -59 -10 -186 -6 -235 8 l-20 5 20 -15 c11 -8 38 -18 60 -22 l40 -9
-35 -6 c-23 -5 0 -8 68 -9 60 0 102 -5 102 -11 0 -5 10 -10 23 -10 28 0 38 -7
65 -47 24 -34 29 -72 10 -74 -43 -5 -415 5 -423 11 -5 4 -26 10 -46 13 -19 3
-53 13 -75 23 -21 9 -45 16 -51 15 -7 -1 -13 5 -13 14 0 18 -16 20 -23 3 -3
-7 -6 7 -7 32 -1 48 -34 100 -65 100 -8 0 -15 4 -15 10 0 15 36 30 77 31 21 1
49 5 63 9 20 6 14 8 -27 9 -52 1 -53 2 -35 20 9 10 27 31 39 45 l21 26 154 -2
c84 -1 124 -3 88 -5z"/>
<path d="M7696 7681 c-4 -6 -27 -11 -51 -11 -45 0 -74 -19 -33 -21 16 -1 12
-4 -12 -9 -23 -5 -27 -8 -13 -9 32 -2 104 -31 128 -51 11 -10 30 -21 42 -24
25 -8 69 -57 96 -106 17 -32 18 -33 75 -27 72 7 222 55 219 71 -1 6 5 10 14 8
21 -3 21 29 0 45 -9 7 -39 13 -67 13 -53 0 -116 21 -141 46 -8 8 -23 14 -33
14 -11 0 -32 14 -47 30 -25 27 -37 32 -99 37 -48 4 -73 2 -78 -6z"/>
<path d="M10450 7475 c-29 -16 -97 -19 -155 -5 -51 12 -55 6 -14 -19 19 -11
40 -25 47 -31 6 -6 43 -27 81 -46 39 -20 85 -52 104 -73 35 -39 75 -70 50 -39
-7 8 -10 18 -7 21 3 3 3 33 -1 67 -6 48 -10 59 -20 50 -10 -9 -15 -4 -20 21
-4 18 -15 40 -24 50 -14 15 -19 16 -41 4z"/>
<path d="M9922 7233 c-10 -4 -7 -9 9 -17 30 -15 38 -56 38 -206 1 -76 7 -135
17 -170 9 -30 18 -107 21 -170 2 -63 9 -119 14 -124 5 -6 9 -19 10 -30 0 -17
2 -16 11 7 5 15 14 27 19 27 6 0 8 -3 6 -7 -3 -5 -1 -26 3 -48 5 -27 8 9 9
112 0 83 -3 153 -7 155 -19 8 -54 195 -59 320 -4 92 -10 134 -20 144 -14 14
-46 17 -71 7z"/>
<path d="M10305 7068 c-90 -18 -95 -21 -83 -64 5 -21 23 -61 39 -89 35 -62 69
-213 69 -310 0 -79 9 -123 20 -105 4 7 11 -9 14 -36 4 -27 14 -76 21 -109 8
-33 17 -73 21 -90 4 -20 8 -25 12 -15 4 10 10 1 18 -25 l12 -40 1 60 c0 104
-16 277 -27 284 -9 5 -41 263 -43 351 0 14 -5 30 -10 36 -5 6 -5 34 0 64 5 30
6 60 4 67 -3 7 0 13 7 13 6 0 8 5 5 10 -7 11 -10 11 -80 -2z"/>
<path d="M9552 6957 c-15 -18 -11 -200 5 -218 6 -8 16 -59 22 -113 5 -55 15
-104 21 -110 19 -19 29 14 25 79 -13 196 -25 333 -31 353 -7 25 -26 29 -42 9z"/>
<path d="M9858 6609 c-5 -48 -3 -64 18 -105 29 -57 31 -105 6 -127 -11 -10
-50 -21 -96 -27 -43 -5 -81 -12 -86 -15 -5 -3 -11 -36 -14 -73 -4 -37 -13 -87
-20 -112 -8 -25 -18 -58 -22 -75 l-7 -30 -7 25 c-5 19 -9 8 -15 -45 -10 -84
-11 -146 -6 -370 2 -133 5 -161 12 -130 5 22 14 44 19 49 6 6 10 22 10 36 0
14 7 35 15 46 8 10 15 28 15 39 0 11 9 28 19 37 17 15 21 15 42 0 21 -15 22
-15 16 14 l-6 29 14 -30 c8 -16 14 -38 15 -47 0 -9 4 -19 9 -23 22 -13 43
-111 45 -203 l1 -97 -30 -20 c-16 -11 -42 -26 -57 -34 -38 -19 -26 -31 33 -31
27 0 49 -4 49 -9 0 -12 141 -25 174 -17 14 3 33 15 43 25 10 10 27 23 38 29
11 6 14 12 8 12 -20 0 -15 17 5 22 15 4 20 19 25 68 4 35 7 80 7 101 0 22 5
39 10 39 11 0 14 379 3 407 -5 12 -7 12 -14 1 -7 -10 -9 -9 -9 4 0 10 -9 22
-19 28 -26 13 -34 13 -26 -2 4 -7 -5 -1 -18 14 -18 19 -28 47 -37 100 -7 40
-14 79 -16 87 -6 19 -21 3 -27 -29 -2 -14 -5 57 -6 158 -1 196 -7 226 -56 284
-19 23 -25 26 -25 12 0 -23 -17 -7 -22 21 -2 11 -7 -5 -10 -36z"/>
<path d="M10505 6000 c0 -245 1 -427 3 -405 5 86 15 94 27 25 11 -57 13 -21
13 275 0 187 -1 336 -3 330 -2 -5 -7 -45 -10 -88 -4 -43 -10 -76 -13 -72 -4 4
-9 91 -12 193 -3 106 -5 -6 -5 -258z"/>
<path d="M2589 6108 c-15 -29 -4 -99 18 -116 22 -17 105 -10 149 12 19 10 35
27 38 42 10 39 0 41 -19 4 -16 -30 -17 -31 -35 -15 -11 10 -22 26 -25 36 -7
22 -36 39 -82 50 -28 6 -35 4 -44 -13z"/>
<path d="M500 5793 c0 -82 -17 -108 -23 -36 -2 27 -4 -162 -5 -419 -2 -339 1
-474 10 -495 7 -17 13 -108 16 -231 3 -168 6 -202 18 -198 10 4 16 -6 20 -34
4 -22 11 -38 16 -37 6 1 17 -20 25 -47 8 -26 16 -46 18 -44 6 6 -25 191 -36
210 -5 10 -9 62 -9 115 0 54 -7 148 -15 208 -18 132 -22 873 -5 905 16 30 12
97 -10 137 l-20 38 0 -72z"/>
<path d="M10377 5405 c-10 -33 -19 -62 -20 -65 -10 -30 -119 -162 -144 -175
-49 -24 -63 -51 -63 -120 0 -42 3 -56 10 -45 8 12 10 12 11 -5 0 -14 6 -7 18
20 24 52 80 103 92 84 5 -8 9 -21 10 -29 1 -8 7 23 14 69 8 46 17 87 22 90 5
3 14 17 20 31 11 23 12 20 12 -29 1 -30 3 -52 6 -49 13 13 36 163 33 219 l-3
64 -18 -60z"/>
<path d="M9501 5375 c0 -16 -8 -43 -16 -59 -17 -33 -21 -209 -5 -250 9 -24 14
-26 70 -26 61 0 61 0 123 57 18 17 22 64 7 98 -7 17 -9 17 -9 3 -1 -21 -44
-45 -91 -49 -32 -4 -35 -1 -38 24 -2 16 -9 27 -19 27 -13 0 -15 8 -11 43 3 23
2 69 -2 102 -4 33 -8 47 -9 30z"/>
<path d="M576 5035 c4 -49 13 -104 20 -122 9 -20 14 -73 15 -140 0 -67 4 -100
9 -88 10 25 18 9 23 -50 2 -22 5 30 6 115 2 85 7 166 11 180 8 25 8 25 10 -5
l3 -30 6 35 c9 47 3 65 -16 48 -9 -7 -19 -21 -23 -33 -6 -16 -9 -13 -15 20 -9
51 -32 126 -46 145 -7 11 -8 -12 -3 -75z"/>
<path d="M6192 5030 c-1 -36 3 -72 8 -80 6 -10 8 -3 3 23 -3 23 -2 37 5 37 6
0 12 -12 14 -27 2 -22 13 -33 51 -50 52 -25 60 -38 77 -135 14 -74 44 -120 99
-148 64 -32 100 -69 141 -144 22 -40 51 -82 65 -94 14 -12 25 -30 26 -39 2
-55 9 -84 33 -130 16 -32 26 -69 26 -94 0 -50 18 -118 38 -141 8 -10 44 -36
81 -60 36 -23 78 -52 93 -64 15 -12 42 -25 60 -29 18 -4 38 -11 43 -15 6 -4
51 -13 100 -20 50 -6 94 -15 100 -21 5 -6 4 -9 -3 -9 -8 0 -4 -12 10 -30 15
-21 38 -35 74 -46 29 -8 58 -22 65 -31 20 -24 23 -214 4 -239 -10 -12 -14 -13
-11 -4 2 8 7 29 10 45 l6 30 -15 -25 c-8 -14 -14 -35 -15 -48 0 -12 -7 -25
-16 -29 -8 -3 -13 -12 -10 -19 10 -25 -28 -79 -60 -85 -16 -4 -135 -4 -265 -1
-227 5 -296 1 -285 -17 3 -5 -7 -11 -23 -14 -16 -4 -40 -16 -54 -29 -30 -28
-97 -47 -190 -55 -37 -3 -70 -10 -73 -14 -3 -5 -184 -10 -402 -10 -316 -2
-381 -4 -317 -12 44 -5 195 -9 335 -8 205 1 250 -1 230 -11 -17 -8 -90 -12
-223 -13 -156 0 -199 -3 -206 -14 -7 -11 -36 -11 -182 -1 -278 20 -446 24
-479 10 -16 -7 -100 -15 -187 -19 -139 -5 -158 -8 -155 -22 2 -14 -11 -18 -80
-23 -181 -14 -218 -18 -218 -27 0 -5 -12 -9 -26 -9 -14 0 -23 4 -19 9 11 20
-36 31 -127 31 -51 0 -133 5 -183 10 -60 7 -112 7 -160 1 -38 -6 -168 -12
-287 -13 -120 -2 -218 -6 -218 -9 0 -14 -39 -21 -175 -32 -204 -17 -320 -15
-381 6 -49 17 -102 57 -75 57 7 0 9 5 6 10 -3 6 -21 10 -39 10 -19 0 -53 7
-76 15 -23 8 -57 15 -75 15 -18 0 -49 -7 -68 -15 -46 -19 -96 -19 -117 0 -15
14 -16 12 -12 -16 4 -26 2 -30 -14 -27 -15 2 -20 15 -25 63 -3 33 -7 49 -9 35
-1 -14 -1 -32 0 -40 1 -8 -1 -12 -5 -9 -3 4 -8 21 -10 39 -9 69 -15 39 -15
-72 0 -145 -5 -173 -36 -187 -37 -16 -81 -14 -88 5 -4 9 -9 58 -13 108 -8 122
-21 153 -24 56 l-1 -75 -12 45 c-6 25 -14 50 -17 55 -9 14 -17 59 -24 136 -6
65 -5 67 19 73 32 8 34 36 4 37 -13 0 0 6 27 13 41 10 49 15 47 31 -4 19 -83
105 -97 105 -4 0 -13 6 -20 14 -18 17 -4 21 108 31 l78 7 24 52 c12 28 25 59
28 68 3 9 34 35 69 57 35 22 59 41 55 41 -5 0 -1 7 7 16 9 8 16 27 16 41 l0
26 19 -22 c11 -13 21 -27 23 -33 2 -5 24 -9 48 -10 25 0 50 -4 56 -9 7 -6 16
-9 20 -8 20 3 26 -2 15 -14 -8 -10 -7 -14 4 -14 17 0 30 55 21 89 -3 13 -27
37 -53 53 -42 26 -49 36 -56 75 -5 25 -13 61 -19 81 -18 63 17 299 45 299 17
0 59 72 148 251 23 46 37 57 85 67 23 5 39 14 40 22 2 33 37 96 66 121 23 20
31 36 35 73 7 56 -2 66 -63 66 -50 0 -109 -20 -161 -54 -21 -14 -63 -32 -93
-40 -96 -25 -120 -37 -135 -67 -8 -15 -15 -34 -15 -42 0 -8 -15 -30 -32 -49
-18 -19 -45 -55 -61 -79 -15 -24 -38 -59 -52 -78 -28 -38 -41 -75 -60 -171
-13 -64 -13 -65 -14 -20 -1 35 -4 42 -12 30 -8 -11 -12 -12 -16 -2 -2 6 -9 10
-14 7 -4 -3 -11 4 -13 17 -3 13 -7 32 -9 43 -3 11 -5 -7 -6 -40 0 -33 -7 -69
-15 -80 -7 -11 -16 -33 -20 -50 -10 -42 -34 -74 -45 -57 -14 24 -53 -36 -65
-100 -9 -48 -30 -51 -24 -3 2 19 0 35 -4 35 -4 0 -8 -29 -8 -64 0 -55 -6 -76
-40 -145 -24 -47 -40 -94 -40 -115 0 -19 -5 -38 -11 -41 -6 -4 -8 -24 -5 -49
3 -26 3 -32 -2 -16 -7 23 -9 21 -20 -20 -6 -25 -14 -61 -17 -80 -4 -19 -14
-51 -23 -70 -31 -67 -25 -300 8 -300 4 0 14 -16 20 -36 7 -20 33 -61 58 -92
46 -58 142 -164 142 -157 0 12 63 -63 90 -107 18 -29 54 -72 81 -97 27 -25 49
-51 49 -58 0 -7 9 -27 20 -45 11 -18 20 -28 20 -23 0 6 17 12 37 13 21 1 47 4
58 6 11 3 29 5 40 6 20 1 20 1 1 15 -11 8 -36 15 -55 15 -34 1 -38 4 -66 62
-16 33 -36 63 -42 65 -7 3 -13 11 -13 19 0 7 -9 19 -20 27 -17 12 -14 14 42
26 44 9 57 15 47 21 -10 7 -6 11 19 16 18 4 37 14 42 24 16 30 142 33 276 5
140 -29 156 -34 149 -46 -4 -5 -1 -9 4 -9 21 0 93 -73 80 -81 -7 -4 22 -23 72
-46 46 -22 95 -50 107 -61 13 -12 45 -24 70 -28 26 -3 66 -12 90 -20 23 -8 84
-15 135 -15 51 -1 84 -3 75 -6 -10 -2 -18 -9 -18 -15 0 -18 44 -47 72 -48 19
0 31 -9 47 -35 31 -54 86 -75 197 -75 84 0 94 -2 137 -31 41 -27 59 -32 145
-39 53 -4 115 -15 137 -23 53 -21 99 -21 138 0 21 11 68 20 132 24 55 4 120
12 145 18 26 6 182 10 367 11 308 0 323 1 333 19 5 11 10 30 9 43 l-1 23 -7
-24 c-4 -14 -12 -26 -18 -28 -7 -3 -9 4 -6 17 3 11 2 20 -3 19 -26 -5 -53 3
-58 17 -9 24 16 41 75 49 73 10 98 25 39 24 -25 0 -74 5 -110 11 -79 14 -266
6 -340 -14 -14 -4 -37 -3 -50 3 -14 5 -19 10 -11 10 11 1 11 4 1 16 -9 10 -9
15 -1 15 24 0 9 29 -20 39 -42 15 -75 14 -129 -3 -43 -14 -44 -15 -12 -15 17
-1 32 -5 32 -11 0 -5 11 -10 24 -10 14 0 28 -4 31 -10 4 -6 -8 -10 -29 -10
-31 0 -38 -4 -49 -33 l-14 -32 -219 1 c-276 1 -287 2 -279 14 4 6 -11 10 -36
10 -40 0 -41 1 -23 15 10 8 35 17 54 21 34 7 34 7 10 17 -14 5 -99 11 -190 12
-91 1 -173 6 -182 11 -11 6 64 8 205 8 122 -1 206 1 187 5 l-35 7 40 7 c22 4
75 7 117 7 71 0 112 13 71 22 -19 5 80 13 292 25 103 6 119 9 75 13 -114 11
-4 20 241 20 183 0 258 4 295 14 27 8 76 18 108 22 56 6 58 7 35 20 -13 7 -18
13 -11 14 7 0 11 4 8 9 -3 5 5 12 19 15 14 4 25 13 25 20 0 20 23 26 95 26 41
0 78 7 106 20 24 11 64 20 89 20 25 1 65 5 90 11 25 6 74 15 109 20 36 6 74
15 85 21 19 10 19 10 -2 -23 -12 -19 -35 -38 -54 -45 -26 -8 -35 -18 -42 -46
-5 -21 -18 -40 -29 -45 -19 -9 -19 -10 -3 -16 10 -4 15 -3 11 3 -4 6 22 10 67
11 40 1 65 3 56 6 -20 5 -25 23 -6 23 6 0 9 3 5 6 -14 14 159 85 252 105 52
11 54 12 31 22 -23 9 -23 10 -5 14 11 2 56 16 100 31 72 23 77 27 50 32 -29 6
-29 6 -7 14 12 4 20 11 17 16 -7 12 14 17 146 31 114 12 189 7 189 -11 0 -6
-7 -10 -15 -10 -8 0 -15 -4 -15 -10 0 -5 8 -10 19 -10 10 0 18 -6 18 -12 -1
-7 2 -34 6 -60 7 -42 12 -48 47 -62 57 -22 82 -82 88 -203 4 -92 5 -93 28 -87
19 5 23 3 18 -9 -3 -10 2 -18 17 -22 14 -5 25 -3 27 4 2 6 8 9 13 5 5 -3 9 1
9 8 0 7 22 25 49 40 79 45 82 51 88 186 3 62 8 92 16 92 7 0 31 38 55 84 33
65 42 94 42 134 0 28 5 54 10 57 6 3 10 1 10 -5 0 -22 18 0 23 29 5 25 11 30
37 29 16 -1 30 -5 30 -9 0 -4 14 -7 30 -7 20 1 30 6 31 17 5 65 3 328 -3 325
-4 -3 -5 3 -1 12 5 13 3 15 -8 10 -8 -4 -6 -1 4 7 16 13 16 15 1 21 -13 5 -15
17 -10 72 6 67 -11 174 -35 221 -7 12 -31 32 -55 45 -43 23 -57 43 -69 104 -7
36 -40 70 -106 107 -54 31 -96 77 -105 115 -9 35 -34 85 -48 94 -6 4 -34 12
-63 18 -59 13 -66 19 -84 78 -9 30 -30 60 -66 95 -30 29 -74 81 -97 117 -70
106 -111 140 -215 180 -50 19 -91 38 -91 42 0 4 -18 17 -40 28 -45 23 -85 79
-45 64 24 -10 17 4 -12 23 -21 14 -55 19 -145 23 l-118 5 -1 -35 -2 -35 -7 40
c-6 36 -7 34 -8 -25z"/>
<path d="M9286 4803 c-8 -60 -18 -78 -29 -50 -3 6 -6 -52 -6 -129 -1 -121 2
-148 19 -185 26 -58 26 -133 0 -182 -11 -20 -20 -44 -20 -52 0 -8 -4 -15 -9
-15 -5 0 -14 -15 -20 -32 -9 -24 -14 -29 -20 -20 -14 23 -23 -14 -28 -115 -4
-66 -2 -93 6 -93 6 0 11 5 11 11 0 5 5 7 10 4 17 -11 68 33 79 68 5 17 13 52
17 77 3 25 22 74 41 109 31 56 34 65 20 78 -11 11 -13 23 -6 45 8 30 -3 114
-20 146 -5 9 -12 41 -16 70 -4 31 -11 49 -17 46 -7 -4 -7 0 0 12 5 11 7 25 4
33 -3 8 0 11 7 7 8 -5 11 14 10 66 -1 40 -4 62 -8 48 -4 -16 -8 -1 -11 45 l-6
70 -8 -62z"/>
<path d="M5830 4762 c0 -10 -4 -22 -9 -27 -6 -6 -15 -41 -21 -78 -12 -74 -54
-170 -90 -202 -15 -14 -42 -22 -89 -26 l-66 -6 83 -1 c123 -3 142 8 170 97 23
69 43 261 28 261 -3 0 -6 -8 -6 -18z"/>
<path d="M5005 4416 c-11 -7 -52 -19 -91 -25 -102 -17 -265 -108 -314 -174
-26 -35 -45 -50 -75 -59 l-40 -11 60 -13 c72 -15 103 -9 111 21 3 13 15 32 27
43 32 30 210 82 282 83 53 0 117 14 90 19 -5 1 8 6 30 11 22 4 147 8 278 8
260 1 267 2 315 61 l22 29 -32 -10 c-40 -11 -176 -11 -203 1 -17 7 -16 9 10 9
23 1 27 4 15 11 -24 16 -461 12 -485 -4z"/>
<path d="M8348 4295 c-4 -38 -12 -71 -18 -73 -14 -5 -13 -247 1 -292 6 -19 14
-127 19 -239 5 -119 12 -206 18 -210 6 -4 12 -29 15 -56 2 -28 5 51 7 175 3
259 2 295 -13 330 -6 14 -14 116 -17 230 -4 166 -6 192 -12 135z"/>
<path d="M3397 4323 c-49 -6 -72 -38 -62 -90 4 -21 12 -44 17 -51 8 -9 7 -11
-6 -6 -9 3 -16 1 -16 -5 0 -6 6 -12 13 -13 6 0 23 -3 37 -4 14 -2 37 -6 53
-10 15 -3 85 -3 155 1 l127 8 -69 18 c-37 9 -73 22 -79 28 -6 6 -26 11 -44 11
-20 0 -41 8 -55 22 l-21 21 94 -6 c129 -9 204 -45 242 -115 44 -81 57 -84 42
-12 -16 75 -70 161 -117 182 -34 16 -236 30 -311 21z"/>
<path d="M650 4128 c0 -20 29 -58 45 -58 7 0 20 -7 28 -15 23 -22 120 -32 257
-26 l125 6 -37 18 c-27 13 -62 17 -140 17 -148 0 -228 14 -255 46 -13 14 -23
19 -23 12z"/>
<path d="M3329 4112 c11 -21 110 -106 127 -108 6 -1 22 -5 35 -9 16 -4 20 -3
10 3 -9 7 4 12 44 17 51 6 59 4 81 -16 14 -13 22 -29 20 -35 -3 -7 0 -14 6
-16 7 -3 13 -53 16 -136 3 -73 7 -132 9 -132 14 0 33 33 33 58 0 33 22 57 45
48 8 -3 15 -1 15 5 0 7 13 9 38 4 20 -4 78 -9 127 -11 50 -3 97 -7 105 -10 23
-9 -26 -30 -86 -39 -36 -4 -63 -16 -89 -37 -34 -29 -36 -33 -20 -44 9 -7 15
-17 12 -22 -7 -11 29 -43 38 -34 3 4 20 7 37 8 l30 2 -2 -97 c-3 -119 -5 -112
25 -101 18 7 24 6 22 -2 -3 -18 41 -26 154 -27 77 -1 124 -7 169 -21 77 -24
163 -26 221 -3 31 12 79 17 164 19 273 4 282 5 255 16 -15 6 -20 12 -13 15 10
4 10 10 -2 26 -8 12 -15 34 -15 50 0 39 -23 90 -63 140 -19 23 -46 65 -60 93
-18 35 -35 55 -56 64 -38 16 -40 38 -3 42 15 2 26 8 24 13 -1 6 12 13 30 16
18 4 -113 5 -292 3 -226 -2 -311 -1 -280 6 25 6 158 12 295 14 393 7 433 9
267 15 -78 4 -213 4 -300 1 -86 -3 -260 -4 -385 -1 l-228 4 -34 44 c-19 24
-32 50 -29 57 2 6 -3 12 -13 13 -110 9 -322 39 -361 52 -36 11 -105 51 -110
63 -2 4 -8 8 -13 8 -6 0 -6 -7 0 -18z"/>
<path d="M3870 4024 c-6 -14 -10 -30 -10 -35 0 -14 47 -59 61 -59 7 0 4 7 -7
16 -19 15 -19 16 1 9 38 -14 255 -19 255 -6 0 6 8 11 18 11 14 0 15 2 2 10 -8
5 -37 10 -65 10 -33 0 -78 12 -135 35 -47 19 -91 35 -98 35 -7 0 -17 -12 -22
-26z"/>
<path d="M8205 3718 c-4 -13 -13 -36 -20 -53 -25 -58 -70 -554 -51 -573 3 -3
6 11 6 31 0 24 5 37 14 37 9 0 15 22 19 76 8 86 25 132 28 74 2 -19 5 69 9
195 4 127 6 231 4 233 -1 2 -5 -7 -9 -20z"/>
<path d="M4514 2075 c-4 -8 -17 -15 -29 -15 -13 0 -36 -4 -50 -10 -22 -8 -25
-15 -22 -39 3 -15 10 -38 17 -51 6 -12 10 -31 7 -41 -3 -10 -1 -19 4 -19 14 0
11 -28 -3 -33 -7 -3 25 -3 70 0 66 5 86 3 93 -8 6 -10 39 -15 121 -19 63 -3
107 -9 101 -13 -20 -13 -15 -27 10 -27 29 0 67 27 67 47 0 9 -7 24 -16 34 -8
9 -18 32 -21 50 -6 40 15 59 65 59 48 0 31 16 -25 24 -29 4 -70 21 -103 41
-54 35 -55 35 -167 35 -92 0 -115 -3 -119 -15z"/>
<path d="M1830 1875 c0 -43 41 -175 53 -172 10 2 15 -14 36 -127 11 -60 71
-192 97 -212 8 -7 19 -27 24 -45 6 -20 11 -264 11 -579 1 -380 4 -529 11 -492
5 28 13 52 18 52 5 0 11 -24 13 -52 2 -29 2 114 0 317 -2 210 -8 398 -15 434
-7 40 -8 99 -3 160 4 53 7 113 6 134 -1 41 -39 140 -51 132 -4 -3 -11 7 -14
20 -4 14 -10 24 -14 21 -5 -3 -20 46 -35 107 -29 125 -137 361 -137 302z"/>
<path d="M4788 1749 c-2 -5 -39 -12 -83 -15 -122 -8 -148 -13 -141 -30 4 -11
-4 -14 -38 -14 -25 0 -46 -4 -48 -10 -1 -5 -46 -12 -98 -15 -110 -7 -170 -16
-152 -22 6 -3 10 -8 7 -12 -2 -4 19 -9 48 -9 98 -3 155 -23 97 -33 -28 -5 -24
-7 25 -7 36 -1 82 6 115 18 75 26 121 25 182 -6 50 -26 56 -26 168 -20 63 4
138 10 165 13 46 6 47 7 22 14 -16 4 -36 5 -45 3 -10 -3 -4 2 12 12 29 16 87
16 171 -2 29 -6 29 -5 -18 40 -27 26 -58 46 -70 46 -12 0 -33 3 -47 7 l-25 7
30 7 c20 4 3 7 -50 8 -44 1 -102 8 -129 16 -58 18 -93 19 -98 4z"/>
<path d="M1840 69 c-228 -9 -260 -14 -260 -45 l0 -24 188 0 187 0 44 40 c25
22 38 39 30 38 -8 -1 -93 -5 -189 -9z"/>
</g>
</svg>
